# xmcd
#
# Track frame offsets: 
#        150
#        37655
#        68490
#        102502
#        132607
#        164737
#        193435
#        231255
#        259435
#        277440
#        306417
#
# Disc length: 4537 seconds
#
# Revision: 1
# Processed by: cddbd v1.5.1PL0 Copyright (c) Steve Scherf et al.
# Submitted via: ExactAudioCopy v0.95a5
#
DISCID=b411b70b
DTITLE=Joey DeFrancesco and Jimmy Smith - Legacy
DYEAR=2005
DGENRE=Jazz
TTITLE0=Legacy
TTITLE1=Dot Com Blues
TTITLE2=I'll Close My Eyes
TTITLE3=Back At The Chicken Shack
TTITLE4=Jones'n For Elvin
TTITLE5=Off The Top
TTITLE6=Corcovado (Quiet Nights)
TTITLE7=I've Got My Mojo Workin'
TTITLE8=St. Thomas
TTITLE9=Blues For Bobby C.
TTITLE10=Midnight Special
EXTD=
EXTT0=
EXTT1=
EXTT2=
EXTT3=
EXTT4=
EXTT5=
EXTT6=
EXTT7=
EXTT8=
EXTT9=
EXTT10=
PLAYORDER=
